<mxfile host="app.diagrams.net" modified="2024-07-23T15:02:35.045Z" agent="Mozilla/5.0 (Macintosh; Intel Mac OS X 10_15_7) AppleWebKit/605.1.15 (KHTML, like Gecko) Version/17.5 Safari/605.1.15" etag="pjpybivma5jRL12gTXtr" version="24.7.1" type="device">
  <diagram name="Page-1" id="uHuE6cg2GW2eRnbbnOSD">
    <mxGraphModel dx="2007" dy="733" grid="1" gridSize="10" guides="1" tooltips="1" connect="1" arrows="1" fold="1" page="1" pageScale="1" pageWidth="827" pageHeight="1169" math="0" shadow="0">
      <root>
        <mxCell id="0" />
        <mxCell id="1" parent="0" />
        <mxCell id="6cxOLxEHydVUGt_gi3Ii-15" value="" style="edgeStyle=orthogonalEdgeStyle;rounded=0;orthogonalLoop=1;jettySize=auto;html=1;strokeWidth=2;sketch=1;curveFitting=1;jiggle=2;" edge="1" parent="1" source="6cxOLxEHydVUGt_gi3Ii-10" target="6cxOLxEHydVUGt_gi3Ii-7">
          <mxGeometry relative="1" as="geometry" />
        </mxCell>
        <mxCell id="6cxOLxEHydVUGt_gi3Ii-10" value="" style="rounded=1;whiteSpace=wrap;html=1;strokeWidth=1;dashed=1;strokeColor=#007FFF;sketch=1;curveFitting=1;jiggle=2;fillColor=none;" vertex="1" parent="1">
          <mxGeometry x="-30" y="410" width="430" height="100" as="geometry" />
        </mxCell>
        <mxCell id="6cxOLxEHydVUGt_gi3Ii-11" value="" style="edgeStyle=orthogonalEdgeStyle;rounded=0;orthogonalLoop=1;jettySize=auto;html=1;strokeWidth=2;sketch=1;curveFitting=1;jiggle=2;" edge="1" parent="1" source="6cxOLxEHydVUGt_gi3Ii-8" target="6cxOLxEHydVUGt_gi3Ii-3">
          <mxGeometry relative="1" as="geometry" />
        </mxCell>
        <mxCell id="6cxOLxEHydVUGt_gi3Ii-8" value="" style="rounded=1;whiteSpace=wrap;html=1;strokeWidth=1;dashed=1;strokeColor=#007FFF;sketch=1;curveFitting=1;jiggle=2;fillColor=none;" vertex="1" parent="1">
          <mxGeometry x="-10" y="120" width="390" height="100" as="geometry" />
        </mxCell>
        <mxCell id="6cxOLxEHydVUGt_gi3Ii-1" value="Tìm hiểu&lt;div style=&quot;font-size: 16px;&quot;&gt;lý thuyết âm nhạc&lt;/div&gt;" style="rounded=1;whiteSpace=wrap;html=1;fontSize=16;align=center;strokeWidth=1;sketch=1;curveFitting=1;jiggle=2;fillColor=none;" vertex="1" parent="1">
          <mxGeometry x="10" y="140" width="150" height="60" as="geometry" />
        </mxCell>
        <mxCell id="6cxOLxEHydVUGt_gi3Ii-2" value="&lt;div style=&quot;line-height: 24px; margin-top: 0pt; margin-bottom: 0pt; margin-left: 0.38in; text-indent: -0.38in; direction: ltr; unicode-bidi: embed; word-break: normal; font-size: 16px;&quot;&gt;&lt;span style=&quot;font-size: 16px;&quot;&gt;Khảo sát công&lt;/span&gt;&lt;/div&gt;&lt;div style=&quot;line-height: 24px; margin-top: 0pt; margin-bottom: 0pt; margin-left: 0.38in; text-indent: -0.38in; direction: ltr; unicode-bidi: embed; word-break: normal; font-size: 16px;&quot;&gt;&lt;span style=&quot;font-size: 16px;&quot;&gt;trình liên quan&lt;/span&gt;&lt;/div&gt;" style="rounded=1;whiteSpace=wrap;html=1;fontSize=16;align=center;strokeWidth=1;sketch=1;curveFitting=1;jiggle=2;fillColor=none;" vertex="1" parent="1">
          <mxGeometry x="200" y="140" width="160" height="60" as="geometry" />
        </mxCell>
        <mxCell id="6cxOLxEHydVUGt_gi3Ii-12" value="" style="edgeStyle=orthogonalEdgeStyle;rounded=0;orthogonalLoop=1;jettySize=auto;html=1;strokeWidth=2;sketch=1;curveFitting=1;jiggle=2;" edge="1" parent="1" source="6cxOLxEHydVUGt_gi3Ii-3" target="6cxOLxEHydVUGt_gi3Ii-4">
          <mxGeometry relative="1" as="geometry" />
        </mxCell>
        <mxCell id="6cxOLxEHydVUGt_gi3Ii-3" value="&lt;div style=&quot;line-height: 24px; margin-top: 0pt; margin-bottom: 0pt; margin-left: 0.38in; text-indent: -0.38in; direction: ltr; unicode-bidi: embed; word-break: normal; font-size: 16px;&quot;&gt;Chuẩn bị dữ liệu&lt;/div&gt;" style="rounded=1;whiteSpace=wrap;html=1;fontSize=16;align=center;strokeWidth=1;sketch=1;curveFitting=1;jiggle=2;fillColor=none;" vertex="1" parent="1">
          <mxGeometry x="105" y="250" width="160" height="60" as="geometry" />
        </mxCell>
        <mxCell id="6cxOLxEHydVUGt_gi3Ii-14" style="edgeStyle=orthogonalEdgeStyle;rounded=0;orthogonalLoop=1;jettySize=auto;html=1;entryX=0.5;entryY=0;entryDx=0;entryDy=0;strokeWidth=2;sketch=1;curveFitting=1;jiggle=2;" edge="1" parent="1" source="6cxOLxEHydVUGt_gi3Ii-4" target="6cxOLxEHydVUGt_gi3Ii-10">
          <mxGeometry relative="1" as="geometry" />
        </mxCell>
        <mxCell id="6cxOLxEHydVUGt_gi3Ii-4" value="&lt;div style=&quot;line-height: 24px; margin-top: 0pt; margin-bottom: 0pt; margin-left: 0.38in; text-indent: -0.38in; direction: ltr; unicode-bidi: embed; word-break: normal; font-size: 16px;&quot;&gt;Dùng LLM&amp;nbsp;&lt;span style=&quot;text-indent: -0.38in;&quot;&gt;để giải quyết&amp;nbsp;&lt;/span&gt;&lt;span style=&quot;text-indent: -0.38in;&quot;&gt;bài toán (&lt;/span&gt;&lt;span style=&quot;text-indent: -0.38in;&quot;&gt;tiếng Anh)&lt;/span&gt;&lt;/div&gt;" style="rounded=1;whiteSpace=wrap;html=1;fontSize=16;align=center;strokeWidth=1;sketch=1;curveFitting=1;jiggle=2;fillColor=none;" vertex="1" parent="1">
          <mxGeometry x="-10" y="340" width="390" height="40" as="geometry" />
        </mxCell>
        <mxCell id="6cxOLxEHydVUGt_gi3Ii-5" value="&lt;div style=&quot;line-height: 24px; margin-top: 0pt; margin-bottom: 0pt; margin-left: 0.38in; text-indent: -0.38in; direction: ltr; unicode-bidi: embed; word-break: normal; font-size: 16px;&quot;&gt;Mở rộng sang&lt;/div&gt;&lt;div style=&quot;line-height: 24px; margin-top: 0pt; margin-bottom: 0pt; margin-left: 0.38in; text-indent: -0.38in; direction: ltr; unicode-bidi: embed; word-break: normal; font-size: 16px;&quot;&gt;tiếng Việt&lt;/div&gt;" style="rounded=1;whiteSpace=wrap;html=1;fontSize=16;align=center;strokeWidth=1;sketch=1;curveFitting=1;jiggle=2;fillColor=none;" vertex="1" parent="1">
          <mxGeometry x="-10" y="430" width="130" height="60" as="geometry" />
        </mxCell>
        <mxCell id="6cxOLxEHydVUGt_gi3Ii-6" value="&lt;div style=&quot;line-height: 24px; margin-top: 0pt; margin-bottom: 0pt; margin-left: 0.38in; text-indent: -0.38in; direction: ltr; unicode-bidi: embed; word-break: normal; font-size: 16px;&quot;&gt;Hậu xử lý&lt;/div&gt;" style="rounded=1;whiteSpace=wrap;html=1;fontSize=16;align=center;strokeWidth=1;sketch=1;curveFitting=1;jiggle=2;fillColor=none;" vertex="1" parent="1">
          <mxGeometry x="270" y="430" width="110" height="60" as="geometry" />
        </mxCell>
        <mxCell id="6cxOLxEHydVUGt_gi3Ii-7" value="&lt;div style=&quot;line-height: 24px; margin-top: 0pt; margin-bottom: 0pt; margin-left: 0.38in; text-indent: -0.38in; direction: ltr; unicode-bidi: embed; word-break: normal; font-size: 16px;&quot;&gt;Phát triển ứng dụng&lt;/div&gt;" style="rounded=1;whiteSpace=wrap;html=1;fontSize=16;align=center;strokeWidth=1;sketch=1;curveFitting=1;jiggle=2;fillColor=none;" vertex="1" parent="1">
          <mxGeometry x="102.5" y="540" width="165" height="60" as="geometry" />
        </mxCell>
        <mxCell id="6cxOLxEHydVUGt_gi3Ii-9" value="&lt;div style=&quot;line-height: 24px; margin-top: 0pt; margin-bottom: 0pt; margin-left: 0.38in; text-indent: -0.38in; direction: ltr; unicode-bidi: embed; word-break: normal; font-size: 16px;&quot;&gt;Tinh chỉnh&lt;/div&gt;&lt;div style=&quot;line-height: 24px; margin-top: 0pt; margin-bottom: 0pt; margin-left: 0.38in; text-indent: -0.38in; direction: ltr; unicode-bidi: embed; word-break: normal; font-size: 16px;&quot;&gt;mô hình&lt;/div&gt;" style="rounded=1;whiteSpace=wrap;html=1;fontSize=16;align=center;strokeWidth=1;sketch=1;curveFitting=1;jiggle=2;fillColor=none;" vertex="1" parent="1">
          <mxGeometry x="140" y="430" width="110" height="60" as="geometry" />
        </mxCell>
      </root>
    </mxGraphModel>
  </diagram>
</mxfile>
